<svg width="34" height="42" viewBox="0 0 34 42" fill="none" xmlns="http://www.w3.org/2000/svg">
<path d="M5.40963 7.38803C5.40963 6.85713 5.59611 6.34796 5.92805 5.97255C6.26 5.59714 6.7102 5.38624 7.17964 5.38624H21.3397C21.8091 5.38624 22.2593 5.59714 22.5913 5.97255C22.9232 6.34796 23.1097 6.85713 23.1097 7.38803V11.3916C23.1097 11.9225 22.9232 12.4317 22.5913 12.8071C22.2593 13.1825 21.8091 13.3934 21.3397 13.3934H7.17964C6.7102 13.3934 6.26 13.1825 5.92805 12.8071C5.59611 12.4317 5.40963 11.9225 5.40963 11.3916V7.38803ZM8.06464 10.3907H20.4547V8.38893H8.06464V10.3907ZM0.0996094 4.38534C0.0996094 3.05807 0.565815 1.78516 1.39567 0.846639C2.22552 -0.091884 3.35104 -0.619141 4.52463 -0.619141H24.8797C25.4608 -0.619141 26.0362 -0.489696 26.5731 -0.238197C27.11 0.013302 27.5978 0.38193 28.0087 0.846639C28.4196 1.31135 28.7455 1.86304 28.9679 2.47021C29.1903 3.07738 29.3047 3.72815 29.3047 4.38534V18.8623C28.4638 18.3677 27.572 17.9925 26.6497 17.7453V4.38534C26.6497 3.85444 26.4632 3.34527 26.1313 2.96986C25.7994 2.59445 25.3491 2.38355 24.8797 2.38355H4.52463C4.05519 2.38355 3.60498 2.59445 3.27304 2.96986C2.9411 3.34527 2.75462 3.85444 2.75462 4.38534V31.4096H12.5233C12.5953 32.4532 12.7687 33.4541 13.0437 34.4123H2.75462C2.75462 34.9432 2.9411 35.4523 3.27304 35.8277C3.60498 36.2031 4.05519 36.414 4.52463 36.414H13.7853C14.2917 37.5126 14.9342 38.5237 15.6934 39.4167H4.52463C3.35104 39.4167 2.22552 38.8895 1.39567 37.951C0.565815 37.0124 0.0996094 35.7395 0.0996094 34.4123V4.38534ZM33.7297 30.4087C33.7297 27.4887 32.7041 24.6883 30.8784 22.6235C29.0527 20.5588 26.5766 19.3988 23.9947 19.3988C21.4128 19.3988 18.9367 20.5588 17.111 22.6235C15.2853 24.6883 14.2597 27.4887 14.2597 30.4087C14.2597 33.3287 15.2853 36.1291 17.111 38.1938C18.9367 40.2586 21.4128 41.4185 23.9947 41.4185C26.5766 41.4185 29.0527 40.2586 30.8784 38.1938C32.7041 36.1291 33.7297 33.3287 33.7297 30.4087ZM24.8797 31.4096L24.8815 36.4201C24.8815 36.6855 24.7882 36.9401 24.6223 37.1278C24.4563 37.3155 24.2312 37.4209 23.9965 37.4209C23.7618 37.4209 23.5367 37.3155 23.3707 37.1278C23.2047 36.9401 23.1115 36.6855 23.1115 36.4201V31.4096H18.6776C18.4429 31.4096 18.2178 31.3041 18.0518 31.1164C17.8858 30.9287 17.7926 30.6741 17.7926 30.4087C17.7926 30.1432 17.8858 29.8886 18.0518 29.7009C18.2178 29.5132 18.4429 29.4078 18.6776 29.4078H23.1097V24.4033C23.1097 24.1378 23.2029 23.8832 23.3689 23.6955C23.5349 23.5078 23.76 23.4024 23.9947 23.4024C24.2294 23.4024 24.4545 23.5078 24.6205 23.6955C24.7865 23.8832 24.8797 24.1378 24.8797 24.4033V29.4078H29.2994C29.5341 29.4078 29.7592 29.5132 29.9252 29.7009C30.0912 29.8886 30.1844 30.1432 30.1844 30.4087C30.1844 30.6741 30.0912 30.9287 29.9252 31.1164C29.7592 31.3041 29.5341 31.4096 29.2994 31.4096H24.8797Z" fill="#F4F5FA"/>
</svg>
