<svg width="31" height="31" viewBox="0 0 31 31" fill="none" xmlns="http://www.w3.org/2000/svg">
<path fill-rule="evenodd" clip-rule="evenodd" d="M15.5 11.9057C16.6745 11.9057 17.801 11.4496 18.6315 10.6377C19.462 9.82577 19.9286 8.72459 19.9286 7.57637C19.9286 6.42815 19.462 5.32696 18.6315 4.51505C17.801 3.70314 16.6745 3.24702 15.5 3.24702C14.3255 3.24702 13.199 3.70314 12.3685 4.51505C11.538 5.32696 11.0714 6.42815 11.0714 7.57637C11.0714 8.72459 11.538 9.82577 12.3685 10.6377C13.199 11.4496 14.3255 11.9057 15.5 11.9057ZM15.5 15.1527C17.5554 15.1527 19.5267 14.3545 20.9801 12.9337C22.4335 11.5128 23.25 9.58575 23.25 7.57637C23.25 5.56699 22.4335 3.63991 20.9801 2.21907C19.5267 0.798222 17.5554 0 15.5 0C13.4446 0 11.4733 0.798222 10.0199 2.21907C8.56652 3.63991 7.75 5.56699 7.75 7.57637C7.75 9.58575 8.56652 11.5128 10.0199 12.9337C11.4733 14.3545 13.4446 15.1527 15.5 15.1527ZM17.7143 17.8045C17.7204 17.4045 17.5668 17.0179 17.2861 16.7269C17.0053 16.4359 16.6196 16.2633 16.2108 16.2459C15.9739 16.2389 15.737 16.2353 15.5 16.2351C6.975 16.2351 0 20.5644 0 24.8938C0 26.3291 0.583225 27.7055 1.62137 28.7204C2.65952 29.7353 4.06755 30.3055 5.53571 30.3055H10.5179C10.9583 30.3055 11.3807 30.1344 11.6922 29.83C12.0036 29.5255 12.1786 29.1126 12.1786 28.682C12.1786 28.2514 12.0036 27.8384 11.6922 27.534C11.3807 27.2295 10.9583 27.0585 10.5179 27.0585H5.53571C4.94845 27.0585 4.38524 26.8304 3.96998 26.4244C3.55472 26.0185 3.32143 25.4679 3.32143 24.8938C3.32143 24.4522 3.80857 23.1426 6.24429 21.7355C8.49843 20.4346 11.78 19.4821 15.5 19.4821C15.6299 19.4821 15.7591 19.4835 15.8875 19.4864C16.8662 19.5037 17.7143 18.7613 17.7143 17.8045ZM25.6636 18.469C26.6246 18.6898 27.3819 19.4301 27.6099 20.3696L21.359 26.4783C20.8514 26.9755 20.1925 27.2983 19.4813 27.3983L18.3077 27.5607L18.4738 26.4134C18.5761 25.7181 18.9063 25.074 19.4149 24.5777L25.6636 18.469ZM23.7084 28.7729L30.5018 22.1338C30.8203 21.8218 30.9994 21.3992 31 20.9584C30.9994 19.4188 30.3735 17.9425 29.2599 16.8538C28.1463 15.7652 26.6361 15.1533 25.0613 15.1527C24.6107 15.1527 24.1784 15.327 23.8589 15.6376L17.0655 22.281C16.0496 23.2747 15.3908 24.5637 15.1878 25.9545L14.8114 28.5304C14.763 28.8628 14.7944 29.2016 14.903 29.52C15.0116 29.8384 15.1944 30.1278 15.4371 30.3653C15.6798 30.6028 15.9757 30.7818 16.3013 30.8883C16.627 30.9947 16.9735 31.0257 17.3135 30.9787L19.9507 30.6107C21.3734 30.4123 22.6919 29.7682 23.7084 28.7751" fill="#F4F5FA"/>
</svg>
