<svg width="38" height="43" viewBox="0 0 38 43" fill="none" xmlns="http://www.w3.org/2000/svg">
<path d="M23.0385 14.1102L24.9549 16.2666L6.08251 37.5022H4.1661V35.3458L23.0385 14.1102ZM30.5375 0C30.0168 0 29.4752 0.234389 29.0794 0.679728L25.2674 4.96904L33.0788 13.7586L36.8908 9.46931C37.0839 9.25247 37.2371 8.9949 37.3417 8.71135C37.4462 8.42781 37.5 8.12384 37.5 7.81687C37.5 7.50989 37.4462 7.20593 37.3417 6.92238C37.2371 6.63884 37.0839 6.38127 36.8908 6.16443L32.0165 0.679728C31.5999 0.21095 31.0791 0 30.5375 0ZM23.0385 7.47701L0 33.4004V42.19H7.81144L30.85 16.2666L23.0385 7.47701Z" fill="#F4F5FA"/>
</svg>
