<svg width="42" height="42" viewBox="0 0 42 42" fill="none" xmlns="http://www.w3.org/2000/svg">
<path d="M30.4745 18.2245C31.5 17.199 31.5 15.5505 31.5 12.25C31.5 8.9495 31.5 7.301 30.4745 6.2755M30.4745 18.2245C29.449 19.25 27.8005 19.25 24.5 19.25H17.5C14.1995 19.25 12.551 19.25 11.5255 18.2245M30.4745 6.2755C29.449 5.25 27.8005 5.25 24.5 5.25H17.5C14.1995 5.25 12.551 5.25 11.5255 6.2755M11.5255 6.2755C10.5 7.301 10.5 8.9495 10.5 12.25C10.5 15.5505 10.5 17.199 11.5255 18.2245M22.75 12.25C22.75 12.7141 22.5656 13.1592 22.2374 13.4874C21.9092 13.8156 21.4641 14 21 14C20.5359 14 20.0908 13.8156 19.7626 13.4874C19.4344 13.1592 19.25 12.7141 19.25 12.25C19.25 11.7859 19.4344 11.3408 19.7626 11.0126C20.0908 10.6844 20.5359 10.5 21 10.5C21.4641 10.5 21.9092 10.6844 22.2374 11.0126C22.5656 11.3408 22.75 11.7859 22.75 12.25Z" stroke="#F4F5FA" stroke-width="2.625"/>
<path d="M31.5 10.5C30.1076 10.5 28.7723 9.94688 27.7877 8.96231C26.8031 7.97774 26.25 6.64239 26.25 5.25M31.5 14C30.1076 14 28.7723 14.5531 27.7877 15.5377C26.8031 16.5223 26.25 17.8576 26.25 19.25M10.5 10.5C11.8924 10.5 13.2277 9.94688 14.2123 8.96231C15.1969 7.97774 15.75 6.64239 15.75 5.25M10.5 14C11.8924 14 13.2277 14.5531 14.2123 15.5377C15.1969 16.5223 15.75 17.8576 15.75 19.25M8.75 35.679H12.705C14.4725 35.679 16.2628 35.8645 17.983 36.218C21.0545 36.847 24.2142 36.917 27.3105 36.4245C28.8295 36.1795 30.3205 35.8032 31.6715 35.1522C32.8895 34.5625 34.3822 33.7348 35.385 32.8055C36.386 31.878 37.429 30.3607 38.1675 29.1742C38.8045 28.1557 38.4965 26.908 37.492 26.1502C36.9272 25.7404 36.2473 25.5197 35.5495 25.5197C34.8517 25.5197 34.1718 25.7404 33.607 26.1502L30.4447 28.539C29.2197 29.4665 27.881 30.3187 26.2867 30.5725C26.0942 30.6028 25.893 30.6303 25.683 30.6548M25.683 30.6548L25.4905 30.6757M25.683 30.6548C25.963 30.5789 26.2198 30.4345 26.4302 30.2348C26.6944 30.0069 26.9101 29.7283 27.0646 29.4156C27.2192 29.1029 27.3094 28.7623 27.33 28.4141C27.3505 28.0659 27.301 27.7171 27.1843 27.3883C27.0677 27.0596 26.8862 26.7576 26.6508 26.5002C26.4227 26.2471 26.1571 26.0305 25.8633 25.858C20.9685 22.9372 13.3507 25.1615 8.75 28.4253M25.683 30.6548C25.6198 30.6689 25.5552 30.6759 25.4905 30.6757M25.4905 30.6757C24.4351 30.7815 23.3719 30.7839 22.316 30.6828" stroke="#F4F5FA" stroke-width="2.625" stroke-linecap="round"/>
<path d="M8.75 27.125C8.75 25.6753 7.57475 24.5 6.125 24.5C4.67525 24.5 3.5 25.6753 3.5 27.125V35.875C3.5 37.3247 4.67525 38.5 6.125 38.5C7.57475 38.5 8.75 37.3247 8.75 35.875V27.125Z" stroke="#F4F5FA" stroke-width="2.625"/>
</svg>
