<svg width="38" height="37" viewBox="0 0 38 37" fill="none" xmlns="http://www.w3.org/2000/svg">
<path d="M28.4745 15.2245C29.5 14.199 29.5 12.5505 29.5 9.25C29.5 5.9495 29.5 4.301 28.4745 3.2755M28.4745 15.2245C27.449 16.25 25.8005 16.25 22.5 16.25H15.5C12.1995 16.25 10.551 16.25 9.5255 15.2245M28.4745 3.2755C27.449 2.25 25.8005 2.25 22.5 2.25H15.5C12.1995 2.25 10.551 2.25 9.5255 3.2755M9.5255 3.2755C8.5 4.301 8.5 5.9495 8.5 9.25C8.5 12.5505 8.5 14.199 9.5255 15.2245M20.75 9.25C20.75 9.71413 20.5656 10.1592 20.2374 10.4874C19.9092 10.8156 19.4641 11 19 11C18.5359 11 18.0908 10.8156 17.7626 10.4874C17.4344 10.1592 17.25 9.71413 17.25 9.25C17.25 8.78587 17.4344 8.34075 17.7626 8.01256C18.0908 7.68437 18.5359 7.5 19 7.5C19.4641 7.5 19.9092 7.68437 20.2374 8.01256C20.5656 8.34075 20.75 8.78587 20.75 9.25Z" stroke="#F4F5FA" stroke-width="2.625"/>
<path d="M29.5 7.5C28.1076 7.5 26.7723 6.94688 25.7877 5.96231C24.8031 4.97774 24.25 3.64239 24.25 2.25M29.5 11C28.1076 11 26.7723 11.5531 25.7877 12.5377C24.8031 13.5223 24.25 14.8576 24.25 16.25M8.5 7.5C9.89239 7.5 11.2277 6.94688 12.2123 5.96231C13.1969 4.97774 13.75 3.64239 13.75 2.25M8.5 11C9.89239 11 11.2277 11.5531 12.2123 12.5377C13.1969 13.5223 13.75 14.8576 13.75 16.25M6.75 32.679H10.705C12.4725 32.679 14.2628 32.8645 15.983 33.218C19.0545 33.847 22.2142 33.917 25.3105 33.4245C26.8295 33.1795 28.3205 32.8032 29.6715 32.1522C30.8895 31.5625 32.3822 30.7348 33.385 29.8055C34.386 28.878 35.429 27.3607 36.1675 26.1742C36.8045 25.1557 36.4965 23.908 35.492 23.1502C34.9272 22.7404 34.2473 22.5197 33.5495 22.5197C32.8517 22.5197 32.1718 22.7404 31.607 23.1502L28.4447 25.539C27.2197 26.4665 25.881 27.3187 24.2867 27.5725C24.0942 27.6028 23.893 27.6303 23.683 27.6548M23.683 27.6548L23.4905 27.6757M23.683 27.6548C23.963 27.5789 24.2198 27.4345 24.4302 27.2348C24.6944 27.0069 24.9101 26.7283 25.0646 26.4156C25.2192 26.1029 25.3094 25.7623 25.33 25.4141C25.3505 25.0659 25.301 24.7171 25.1843 24.3883C25.0677 24.0596 24.8862 23.7576 24.6508 23.5002C24.4227 23.2471 24.1571 23.0305 23.8633 22.858C18.9685 19.9372 11.3507 22.1615 6.75 25.4253M23.683 27.6548C23.6198 27.6689 23.5552 27.6759 23.4905 27.6757M23.4905 27.6757C22.4351 27.7815 21.3719 27.7839 20.316 27.6828" stroke="#F4F5FA" stroke-width="2.625" stroke-linecap="round"/>
<path d="M6.75 24.125C6.75 22.6753 5.57475 21.5 4.125 21.5C2.67525 21.5 1.5 22.6753 1.5 24.125V32.875C1.5 34.3247 2.67525 35.5 4.125 35.5C5.57475 35.5 6.75 34.3247 6.75 32.875V24.125Z" stroke="#F4F5FA" stroke-width="2.625"/>
</svg>
