<svg width="46" height="46" viewBox="0 0 46 46" fill="none" xmlns="http://www.w3.org/2000/svg">
<path d="M13.4161 11.5002C13.4161 10.9918 13.618 10.5043 13.9774 10.1449C14.3369 9.78543 14.8244 9.5835 15.3327 9.5835H38.3327C38.841 9.5835 39.3286 9.78543 39.688 10.1449C40.0475 10.5043 40.2494 10.9918 40.2494 11.5002C40.2494 12.0085 40.0475 12.496 39.688 12.8555C39.3286 13.2149 38.841 13.4168 38.3327 13.4168H15.3327C14.8244 13.4168 14.3369 13.2149 13.9774 12.8555C13.618 12.496 13.4161 12.0085 13.4161 11.5002ZM9.64022 26.776L7.39772 24.5335H36.416C36.8227 24.5335 37.2127 24.3719 37.5003 24.0844C37.7878 23.7968 37.9494 23.4068 37.9494 23.0002C37.9494 22.5935 37.7878 22.2035 37.5003 21.9159C37.2127 21.6284 36.8227 21.4668 36.416 21.4668H7.39772L9.64022 19.2243C9.78145 19.0927 9.89473 18.934 9.9733 18.7577C10.0519 18.5814 10.0941 18.391 10.0975 18.198C10.1009 18.005 10.0654 17.8133 9.99312 17.6343C9.92082 17.4553 9.81321 17.2927 9.67671 17.1562C9.54021 17.0197 9.37761 16.9121 9.19862 16.8398C9.01962 16.7675 8.8279 16.732 8.63488 16.7354C8.44187 16.7388 8.25152 16.781 8.07519 16.8596C7.89886 16.9382 7.74015 17.0514 7.60855 17.1927L2.81689 21.9843C2.54769 22.2539 2.39648 22.6192 2.39648 23.0002C2.39648 23.3811 2.54769 23.7465 2.81689 24.016L7.60855 28.8077C7.88105 29.0616 8.24148 29.1998 8.61389 29.1932C8.9863 29.1867 9.34162 29.0358 9.60499 28.7724C9.86837 28.5091 10.0192 28.1537 10.0258 27.7813C10.0324 27.4089 9.89414 27.0485 9.64022 26.776ZM15.3327 32.5835C14.8244 32.5835 14.3369 32.7854 13.9774 33.1449C13.618 33.5043 13.4161 33.9918 13.4161 34.5002C13.4161 35.0085 13.618 35.496 13.9774 35.8555C14.3369 36.2149 14.8244 36.4168 15.3327 36.4168H38.3327C38.841 36.4168 39.3286 36.2149 39.688 35.8555C40.0475 35.496 40.2494 35.0085 40.2494 34.5002C40.2494 33.9918 40.0475 33.5043 39.688 33.1449C39.3286 32.7854 38.841 32.5835 38.3327 32.5835H15.3327Z" fill="#F4F5FA"/>
</svg>
