<svg width="95" height="95" viewBox="0 0 95 95" fill="none" xmlns="http://www.w3.org/2000/svg">
<path d="M11.875 23.7501C11.875 22.7003 12.292 21.6934 13.0344 20.9511C13.7767 20.2088 14.7835 19.7917 15.8333 19.7917H63.3333C64.3831 19.7917 65.39 20.2088 66.1323 20.9511C66.8746 21.6934 67.2917 22.7003 67.2917 23.7501C67.2917 24.7999 66.8746 25.8067 66.1323 26.549C65.39 27.2914 64.3831 27.7084 63.3333 27.7084H15.8333C14.7835 27.7084 13.7767 27.2914 13.0344 26.549C12.292 25.8067 11.875 24.7999 11.875 23.7501ZM16.8229 47.5001C16.8229 46.7127 17.1357 45.9576 17.6924 45.4009C18.2492 44.8441 19.0043 44.5313 19.7917 44.5313H79.9187L75.0896 39.7022C74.7979 39.4304 74.564 39.1026 74.4017 38.7385C74.2394 38.3743 74.1522 37.9812 74.1452 37.5826C74.1381 37.184 74.2115 36.788 74.3608 36.4183C74.5101 36.0487 74.7323 35.7129 75.0142 35.431C75.2961 35.1491 75.6319 34.9268 76.0016 34.7775C76.3713 34.6282 76.7672 34.5549 77.1658 34.5619C77.5644 34.5689 77.9576 34.6562 78.3217 34.8184C78.6859 34.9807 79.0136 35.2147 79.2854 35.5063L89.1813 45.4022C89.7372 45.9588 90.0495 46.7134 90.0495 47.5001C90.0495 48.2868 89.7372 49.0414 89.1813 49.598L79.2854 59.4938C79.0136 59.7855 78.6859 60.0195 78.3217 60.1817C77.9576 60.344 77.5644 60.4312 77.1658 60.4383C76.7672 60.4453 76.3713 60.372 76.0016 60.2227C75.6319 60.0733 75.2961 59.8511 75.0142 59.5692C74.7323 59.2873 74.5101 58.9515 74.3608 58.5818C74.2115 58.2122 74.1381 57.8162 74.1452 57.4176C74.1522 57.019 74.2394 56.6259 74.4017 56.2617C74.564 55.8975 74.7979 55.5698 75.0896 55.298L79.9187 50.4688H19.7917C19.0043 50.4688 18.2492 50.1561 17.6924 49.5993C17.1357 49.0426 16.8229 48.2874 16.8229 47.5001ZM15.8333 67.2917C14.7835 67.2917 13.7767 67.7088 13.0344 68.4511C12.292 69.1934 11.875 70.2003 11.875 71.2501C11.875 72.2999 12.292 73.3067 13.0344 74.049C13.7767 74.7914 14.7835 75.2084 15.8333 75.2084H63.3333C64.3831 75.2084 65.39 74.7914 66.1323 74.049C66.8746 73.3067 67.2917 72.2999 67.2917 71.2501C67.2917 70.2003 66.8746 69.1934 66.1323 68.4511C65.39 67.7088 64.3831 67.2917 63.3333 67.2917H15.8333Z" fill="#F4F5FA"/>
</svg>
