<svg width="35" height="35" viewBox="0 0 35 35" fill="none" xmlns="http://www.w3.org/2000/svg">
<path d="M15.7079 6.74997H21.0829L26.9775 0.837467C27.144 0.669537 27.3422 0.536247 27.5605 0.445287C27.7789 0.354326 28.0131 0.307495 28.2496 0.307495C28.4861 0.307495 28.7203 0.354326 28.9386 0.445287C29.1569 0.536247 29.3551 0.669537 29.5217 0.837467L34.1442 5.47788C34.4779 5.81357 34.6652 6.26768 34.6652 6.74101C34.6652 7.21434 34.4779 7.66844 34.1442 8.00413L30.0412 12.125H15.7079V15.7083C15.7079 16.1835 15.5191 16.6392 15.1831 16.9752C14.8471 17.3112 14.3914 17.5 13.9162 17.5C13.4411 17.5 12.9853 17.3112 12.6493 16.9752C12.3133 16.6392 12.1246 16.1835 12.1246 15.7083V10.3333C12.1246 9.38294 12.5021 8.47151 13.1741 7.7995C13.8461 7.12749 14.7575 6.74997 15.7079 6.74997ZM4.9579 15.7083V22.875L0.854988 26.9779C0.521288 27.3136 0.333984 27.7677 0.333984 28.241C0.333984 28.7143 0.521288 29.1684 0.854988 29.5041L5.47749 34.1446C5.64405 34.3125 5.84221 34.4458 6.06054 34.5367C6.27887 34.6277 6.51305 34.6745 6.74957 34.6745C6.98609 34.6745 7.22027 34.6277 7.4386 34.5367C7.65694 34.4458 7.8551 34.3125 8.02165 34.1446L15.7079 26.4583H22.8746C23.3498 26.4583 23.8055 26.2695 24.1415 25.9335C24.4775 25.5975 24.6662 25.1418 24.6662 24.6666V22.875H26.4579C26.9331 22.875 27.3888 22.6862 27.7248 22.3502C28.0608 22.0142 28.2496 21.5585 28.2496 21.0833V19.2916H30.0412C30.5164 19.2916 30.9721 19.1029 31.3081 18.7669C31.6441 18.4309 31.8329 17.9751 31.8329 17.5V15.7083H19.2912V17.5C19.2912 18.4503 18.9137 19.3618 18.2417 20.0338C17.5697 20.7058 16.6583 21.0833 15.7079 21.0833H12.1246C11.1742 21.0833 10.2628 20.7058 9.59077 20.0338C8.91877 19.3618 8.54124 18.4503 8.54124 17.5V12.125L4.9579 15.7083Z" fill="#F4F5FA"/>
</svg>
