<svg width="42" height="42" viewBox="0 0 42 42" fill="none" xmlns="http://www.w3.org/2000/svg">
<path d="M11.8125 5.25C9.65344 5.25 7.875 7.02844 7.875 9.1875V32.8125C7.875 34.9716 9.65344 36.75 11.8125 36.75H34.125V5.25H11.8125ZM11.8125 7.875H31.5V28.875H11.8125C11.3641 28.8819 10.9203 28.9654 10.5 29.1217V9.1875C10.5 8.44462 11.0696 7.875 11.8125 7.875ZM14.4375 11.8125V14.4375H28.875V11.8125H14.4375ZM11.8125 31.5H31.5V34.125H11.8125C11.0696 34.125 10.5 33.5554 10.5 32.8125C10.5 32.0696 11.0696 31.5 11.8125 31.5Z" fill="#F4F5FA"/>
</svg>
