<svg width="28" height="28" viewBox="0 0 28 28" fill="none" xmlns="http://www.w3.org/2000/svg">
<path d="M23.9052 8.24121L19.8283 4.16159C17.0412 1.37034 15.6483 -0.0225392 14.1509 0.307461C12.6536 0.637461 11.977 2.48959 10.6199 6.19246L9.70142 8.69909C9.3398 9.68633 9.1583 10.18 8.83243 10.5622C8.68675 10.7341 8.5205 10.8874 8.33742 11.0187C7.93042 11.3116 7.42442 11.4505 6.41242 11.7296C4.12992 12.3593 2.9873 12.6742 2.55692 13.4208C2.37088 13.744 2.27407 14.1108 2.27642 14.4837C2.28192 15.3458 3.1193 16.1832 4.79268 17.8593L6.73967 19.8063L0.585175 25.9663C0.397633 26.1651 0.294956 26.4292 0.29894 26.7025C0.302924 26.9758 0.413255 27.2367 0.606513 27.43C0.79977 27.6233 1.06074 27.7336 1.33402 27.7376C1.60729 27.7416 1.87137 27.6389 2.07017 27.4513L8.2233 21.2913L10.239 23.3098C11.9248 24.9956 12.7677 25.8398 13.6353 25.8398C13.9997 25.8398 14.3586 25.7463 14.6762 25.5648C15.4297 25.1345 15.7459 23.985 16.3798 21.6846C16.6576 20.674 16.7964 20.1693 17.0879 19.761C17.2163 19.5831 17.3638 19.4218 17.5307 19.277C17.9088 18.9497 18.3997 18.7655 19.38 18.397L21.9155 17.4441C25.5785 16.0691 27.41 15.3802 27.7318 13.8883C28.0549 12.3951 26.6731 11.0105 23.9052 8.24121Z" fill="#F4F5FA"/>
</svg>
