<svg width="47" height="45" viewBox="0 0 47 45" fill="none" xmlns="http://www.w3.org/2000/svg">
<path d="M15.04 33.2432L23.5 25.2648L31.96 33.2432L35.25 30.1405L26.79 22.1621L35.25 14.1837L31.96 11.0811L23.5 19.0594L15.04 11.0811L11.75 14.1837L20.21 22.1621L11.75 30.1405L15.04 33.2432ZM23.5 44.3242C20.2492 44.3242 17.1942 43.7421 14.335 42.5778C11.4758 41.4136 8.98875 39.8349 6.87375 37.8418C4.75875 35.8487 3.08477 33.5032 1.8518 30.8053C0.618836 28.1075 0.00156964 25.2264 2.97468e-06 22.1621C-0.00156369 19.0978 0.615703 16.2168 1.8518 13.5189C3.0879 10.821 4.76188 8.47553 6.87375 6.48242C8.98561 4.48931 11.4727 2.91062 14.335 1.74637C17.1973 0.582125 20.2523 0 23.5 0C26.7477 0 29.8027 0.582125 32.665 1.74637C35.5273 2.91062 38.0144 4.48931 40.1262 6.48242C42.2381 8.47553 43.9129 10.821 45.1505 13.5189C46.3882 16.2168 47.0047 19.0978 47 22.1621C46.9953 25.2264 46.378 28.1075 45.1482 30.8053C43.9183 33.5032 42.2444 35.8487 40.1262 37.8418C38.0081 39.8349 35.521 41.4143 32.665 42.5801C29.809 43.7458 26.754 44.3272 23.5 44.3242Z" fill="#F4F5FA"/>
</svg>
