<svg width="35" height="35" viewBox="0 0 35 35" fill="none" xmlns="http://www.w3.org/2000/svg">
<circle cx="17.5" cy="17.5" r="17.5" fill="#16103A"/>
<path d="M13.0997 6.3335H22.8997C26.633 6.3335 29.6663 9.36683 29.6663 13.1002V22.9002C29.6663 24.6948 28.9534 26.4159 27.6844 27.6849C26.4154 28.9539 24.6943 29.6668 22.8997 29.6668H13.0997C9.36634 29.6668 6.33301 26.6335 6.33301 22.9002V13.1002C6.33301 11.3055 7.04592 9.5844 8.31492 8.31541C9.58391 7.04641 11.305 6.3335 13.0997 6.3335ZM12.8663 8.66683C11.7524 8.66683 10.6841 9.10933 9.89649 9.89698C9.10884 10.6846 8.66634 11.7529 8.66634 12.8668V23.1335C8.66634 25.4552 10.5447 27.3335 12.8663 27.3335H23.133C24.2469 27.3335 25.3152 26.891 26.1029 26.1033C26.8905 25.3157 27.333 24.2474 27.333 23.1335V12.8668C27.333 10.5452 25.4547 8.66683 23.133 8.66683H12.8663ZM24.1247 10.4168C24.5114 10.4168 24.8824 10.5705 25.1559 10.844C25.4294 11.1175 25.583 11.4884 25.583 11.8752C25.583 12.2619 25.4294 12.6329 25.1559 12.9064C24.8824 13.1799 24.5114 13.3335 24.1247 13.3335C23.7379 13.3335 23.367 13.1799 23.0935 12.9064C22.82 12.6329 22.6663 12.2619 22.6663 11.8752C22.6663 11.4884 22.82 11.1175 23.0935 10.844C23.367 10.5705 23.7379 10.4168 24.1247 10.4168ZM17.9997 12.1668C19.5468 12.1668 21.0305 12.7814 22.1245 13.8754C23.2184 14.9693 23.833 16.4531 23.833 18.0002C23.833 19.5473 23.2184 21.031 22.1245 22.125C21.0305 23.2189 19.5468 23.8335 17.9997 23.8335C16.4526 23.8335 14.9688 23.2189 13.8749 22.125C12.7809 21.031 12.1663 19.5473 12.1663 18.0002C12.1663 16.4531 12.7809 14.9693 13.8749 13.8754C14.9688 12.7814 16.4526 12.1668 17.9997 12.1668ZM17.9997 14.5002C17.0714 14.5002 16.1812 14.8689 15.5248 15.5253C14.8684 16.1817 14.4997 17.0719 14.4997 18.0002C14.4997 18.9284 14.8684 19.8187 15.5248 20.475C16.1812 21.1314 17.0714 21.5002 17.9997 21.5002C18.9279 21.5002 19.8182 21.1314 20.4745 20.475C21.1309 19.8187 21.4997 18.9284 21.4997 18.0002C21.4997 17.0719 21.1309 16.1817 20.4745 15.5253C19.8182 14.8689 18.9279 14.5002 17.9997 14.5002Z" fill="#F4F5FA"/>
</svg>
