<?xml version="1.0" standalone="no"?>
<!DOCTYPE svg PUBLIC "-//W3C//DTD SVG 20010904//EN"
 "http://www.w3.org/TR/2001/REC-SVG-20010904/DTD/svg10.dtd">
<svg version="1.0" xmlns="http://www.w3.org/2000/svg"
 width="512.000000pt" height="512.000000pt" viewBox="0 0 512.000000 512.000000"
 preserveAspectRatio="xMidYMid meet">

<g transform="translate(0.000000,512.000000) scale(0.100000,-0.100000)"
fill="#000000" stroke="none">
<path d="M2045 4031 c-57 -27 -1369 -1343 -1390 -1393 -19 -48 -19 -108 0
-156 20 -48 1331 -1364 1389 -1394 31 -16 53 -19 102 -16 77 5 131 38 170 104
33 56 37 139 10 194 -10 19 -230 248 -489 508 l-472 472 1480 0 c1414 0 1482
1 1520 19 154 69 154 313 0 382 -38 18 -106 19 -1520 19 l-1480 0 472 473
c259 259 479 488 489 507 10 21 17 57 17 91 0 71 -36 137 -95 176 -54 36 -145
42 -203 14z"/>
</g>
</svg>
