<svg width="16" height="10" viewBox="0 0 16 10" fill="none" xmlns="http://www.w3.org/2000/svg">
<path d="M15 0.25H1C0.801088 0.25 0.610322 0.329018 0.46967 0.46967C0.329018 0.610322 0.25 0.801088 0.25 1V9C0.25 9.19891 0.329018 9.38968 0.46967 9.53033C0.610322 9.67098 0.801088 9.75 1 9.75H15C15.1989 9.75 15.3897 9.67098 15.5303 9.53033C15.671 9.38968 15.75 9.19891 15.75 9V1C15.75 0.801088 15.671 0.610322 15.5303 0.46967C15.3897 0.329018 15.1989 0.25 15 0.25ZM11.3256 8.25H4.67438C4.52598 7.53014 4.16992 6.86953 3.65019 6.34981C3.13047 5.83009 2.46986 5.47402 1.75 5.32563V4.67438C2.46986 4.52598 3.13047 4.16991 3.65019 3.65019C4.16992 3.13047 4.52598 2.46986 4.67438 1.75H11.3256C11.474 2.46986 11.8301 3.13047 12.3498 3.65019C12.8695 4.16991 13.5301 4.52598 14.25 4.67438V5.32563C13.5301 5.47402 12.8695 5.83009 12.3498 6.34981C11.8301 6.86953 11.474 7.53014 11.3256 8.25ZM14.25 3.12125C13.9342 3.0085 13.6473 2.82699 13.4102 2.58985C13.173 2.3527 12.9915 2.06585 12.8787 1.75H14.25V3.12125ZM3.12125 1.75C3.00849 2.06585 2.82699 2.3527 2.58985 2.58985C2.3527 2.82699 2.06585 3.0085 1.75 3.12125V1.75H3.12125ZM1.75 6.87875C2.06585 6.9915 2.3527 7.17301 2.58985 7.41015C2.82699 7.6473 3.00849 7.93415 3.12125 8.25H1.75V6.87875ZM12.8787 8.25C12.9915 7.93415 13.173 7.6473 13.4102 7.41015C13.6473 7.17301 13.9342 6.9915 14.25 6.87875V8.25H12.8787ZM8 2.5C7.50555 2.5 7.0222 2.64662 6.61107 2.92133C6.19995 3.19603 5.87952 3.58648 5.6903 4.04329C5.50108 4.50011 5.45157 5.00277 5.54804 5.48773C5.6445 5.97268 5.8826 6.41814 6.23223 6.76777C6.58186 7.1174 7.02732 7.3555 7.51227 7.45196C7.99723 7.54843 8.49989 7.49892 8.95671 7.3097C9.41352 7.12048 9.80397 6.80005 10.0787 6.38893C10.3534 5.9778 10.5 5.49445 10.5 5C10.5 4.33696 10.2366 3.70107 9.76777 3.23223C9.29893 2.76339 8.66304 2.5 8 2.5ZM8 6C7.80222 6 7.60888 5.94135 7.44443 5.83147C7.27998 5.72159 7.15181 5.56541 7.07612 5.38268C7.00043 5.19996 6.98063 4.99889 7.01921 4.80491C7.0578 4.61093 7.15304 4.43275 7.29289 4.29289C7.43275 4.15304 7.61093 4.0578 7.80491 4.01921C7.99889 3.98063 8.19996 4.00043 8.38268 4.07612C8.56541 4.15181 8.72159 4.27998 8.83147 4.44443C8.94135 4.60888 9 4.80222 9 5C9 5.26522 8.89464 5.51957 8.70711 5.70711C8.51957 5.89464 8.26522 6 8 6Z" fill="#F4F5FA"/>
</svg>
