<svg width="23" height="29" viewBox="0 0 23 29" fill="none" xmlns="http://www.w3.org/2000/svg">
<path d="M22.4886 7.07692H15.9231V0.511418L22.4886 7.07692ZM11.5 14.2644C11.8502 14.2644 12.1773 14.3289 12.4814 14.4579C12.7855 14.5869 13.0573 14.7712 13.2969 15.0108C13.5365 15.2504 13.7161 15.5222 13.8359 15.8263C13.9557 16.1304 14.0248 16.4575 14.0433 16.8077C14.0433 17.1579 13.9788 17.485 13.8498 17.7891C13.7208 18.0931 13.5365 18.365 13.2969 18.6046C13.0573 18.8442 12.7855 19.0238 12.4814 19.1436C12.1773 19.2634 11.8502 19.3325 11.5 19.351C11.1498 19.351 10.8227 19.2865 10.5186 19.1575C10.2145 19.0284 9.94271 18.8442 9.70312 18.6046C9.46354 18.365 9.28385 18.0931 9.16406 17.7891C9.04427 17.485 8.97516 17.1579 8.95673 16.8077C8.95673 16.4575 9.02123 16.1304 9.15024 15.8263C9.27925 15.5222 9.46354 15.2504 9.70312 15.0108C9.94271 14.7712 10.2145 14.5915 10.5186 14.4718C10.8227 14.352 11.1498 14.2829 11.5 14.2644ZM23 8.84615V28.3077H0V0H14.1538V8.84615H23ZM15.9645 17.5817C15.983 17.4527 15.9968 17.3237 16.006 17.1947C16.0152 17.0657 16.0198 16.9367 16.0198 16.8077C16.0198 16.6787 16.0152 16.5497 16.006 16.4207C15.9968 16.2917 15.983 16.1627 15.9645 16.0337L18.5216 14.9832L17.7614 13.131L15.2043 14.1953C14.9002 13.7714 14.5363 13.4075 14.1124 13.1034L15.1767 10.5463L13.3245 9.78606L12.274 12.3431C12.145 12.3247 12.016 12.3109 11.887 12.3017C11.758 12.2925 11.629 12.2879 11.5 12.2879C11.371 12.2879 11.242 12.2925 11.113 12.3017C10.984 12.3109 10.855 12.3247 10.726 12.3431L9.67548 9.78606L7.82332 10.5463L8.88762 13.1034C8.46374 13.4075 8.09976 13.7714 7.79567 14.1953L5.23858 13.131L4.47837 14.9832L7.03546 16.0337C7.01703 16.1627 7.0032 16.2917 6.99399 16.4207C6.98478 16.5497 6.97556 16.6787 6.96635 16.8077C6.96635 16.9367 6.97095 17.0657 6.98017 17.1947C6.98938 17.3237 7.00781 17.4527 7.03546 17.5817L4.47837 18.6322L5.23858 20.4844L7.79567 19.4201C8.09976 19.844 8.46374 20.2079 8.88762 20.512L7.82332 23.0691L9.67548 23.8293L10.726 21.2722C10.855 21.2907 10.984 21.3045 11.113 21.3137C11.242 21.3229 11.371 21.3321 11.5 21.3413C11.629 21.3413 11.758 21.3367 11.887 21.3275C12.016 21.3183 12.145 21.2999 12.274 21.2722L13.3245 23.8293L15.1767 23.0691L14.1124 20.512C14.5363 20.2079 14.9002 19.844 15.2043 19.4201L17.7614 20.4844L18.5216 18.6322L15.9645 17.5817Z" fill="#F4F5FA"/>
</svg>
