<svg width="43" height="43" viewBox="0 0 43 43" fill="none" xmlns="http://www.w3.org/2000/svg">
<path d="M21.4993 21.5013C19.5285 21.5013 17.8414 20.7996 16.4379 19.3961C15.0344 17.9926 14.3327 16.3055 14.3327 14.3346C14.3327 12.3638 15.0344 10.6766 16.4379 9.27318C17.8414 7.86971 19.5285 7.16797 21.4993 7.16797C23.4702 7.16797 25.1573 7.86971 26.5608 9.27318C27.9643 10.6766 28.666 12.3638 28.666 14.3346C28.666 16.3055 27.9643 17.9926 26.5608 19.3961C25.1573 20.7996 23.4702 21.5013 21.4993 21.5013ZM7.16602 35.8346V30.818C7.16602 29.8027 7.4276 28.8698 7.95077 28.0194C8.47393 27.1689 9.1679 26.5192 10.0327 26.0701C11.8841 25.1444 13.7653 24.4504 15.6764 23.9881C17.5875 23.5259 19.5285 23.2942 21.4993 23.293C23.4702 23.2918 25.4112 23.5235 27.3223 23.9881C29.2334 24.4528 31.1146 25.1467 32.966 26.0701C33.832 26.518 34.5266 27.1677 35.0497 28.0194C35.5729 28.871 35.8339 29.8039 35.8327 30.818V35.8346H7.16602ZM10.7493 32.2513H32.2493V30.818C32.2493 30.4895 32.1675 30.1909 32.0039 29.9221C31.8403 29.6534 31.6235 29.4444 31.3535 29.2951C29.741 28.4888 28.1136 27.8844 26.4712 27.4819C24.8289 27.0794 23.1716 26.8775 21.4993 26.8763C19.8271 26.8751 18.1698 27.077 16.5275 27.4819C14.8851 27.8868 13.2577 28.4912 11.6452 29.2951C11.3764 29.4444 11.1596 29.6534 10.9948 29.9221C10.83 30.1909 10.7482 30.4895 10.7493 30.818V32.2513ZM21.4993 17.918C22.4848 17.918 23.3286 17.5674 24.031 16.8663C24.7333 16.1651 25.0839 15.3212 25.0827 14.3346C25.0815 13.348 24.7309 12.5047 24.031 11.8048C23.331 11.1049 22.4872 10.7537 21.4993 10.7513C20.5115 10.7489 19.6683 11.1001 18.9695 11.8048C18.2708 12.5095 17.9196 13.3528 17.916 14.3346C17.9124 15.3165 18.2636 16.1603 18.9695 16.8663C19.6754 17.5722 20.5187 17.9227 21.4993 17.918Z" fill="#F4F5FA"/>
</svg>
