<svg width="20" height="20" viewBox="0 0 20 20" fill="none" xmlns="http://www.w3.org/2000/svg">
<path d="M17.1839 5.80518L14.2189 2.83818C12.1919 0.808176 11.1789 -0.204824 10.0899 0.0351757C9.00088 0.275176 8.50888 1.62218 7.52188 4.31518L6.85388 6.13818C6.59088 6.85617 6.45888 7.21518 6.22188 7.49318C6.11593 7.61817 5.99502 7.72967 5.86188 7.82518C5.56588 8.03818 5.19788 8.13918 4.46188 8.34218C2.80188 8.80018 1.97088 9.02917 1.65788 9.57218C1.52257 9.80721 1.45217 10.074 1.45388 10.3452C1.45788 10.9722 2.06688 11.5812 3.28388 12.8002L4.69988 14.2162L0.223877 18.6962C0.0874832 18.8408 0.0128088 19.0328 0.0157063 19.2316C0.0186037 19.4303 0.0988447 19.6201 0.239396 19.7607C0.379946 19.9012 0.569741 19.9814 0.768488 19.9843C0.967236 19.9872 1.15929 19.9126 1.30388 19.7762L5.77888 15.2962L7.24488 16.7642C8.47088 17.9902 9.08388 18.6042 9.71488 18.6042C9.97988 18.6042 10.2409 18.5362 10.4719 18.4042C11.0199 18.0912 11.2499 17.2552 11.7109 15.5822C11.9129 14.8472 12.0139 14.4802 12.2259 14.1832C12.3192 14.0538 12.4265 13.9365 12.5479 13.8312C12.8229 13.5932 13.1799 13.4592 13.8929 13.1912L15.7369 12.4982C18.4009 11.4982 19.7329 10.9972 19.9669 9.91218C20.2019 8.82618 19.1969 7.81918 17.1839 5.80518Z" fill="#F4F5FA"/>
</svg>
