<svg width="112" height="112" viewBox="0 0 112 112" fill="none" xmlns="http://www.w3.org/2000/svg">
<path d="M95.9766 28H70V2.02344L95.9766 28ZM52.5 56.4375C53.8854 56.4375 55.1797 56.6927 56.3828 57.2031C57.5859 57.7135 58.6615 58.4427 59.6094 59.3906C60.5573 60.3385 61.2682 61.4141 61.7422 62.6172C62.2161 63.8203 62.4896 65.1146 62.5625 66.5C62.5625 67.8854 62.3073 69.1797 61.7969 70.3828C61.2865 71.5859 60.5573 72.6615 59.6094 73.6094C58.6615 74.5573 57.5859 75.2682 56.3828 75.7422C55.1797 76.2161 53.8854 76.4896 52.5 76.5625C51.1146 76.5625 49.8203 76.3073 48.6172 75.7969C47.4141 75.2865 46.3385 74.5573 45.3906 73.6094C44.4427 72.6615 43.7318 71.5859 43.2578 70.3828C42.7839 69.1797 42.5104 67.8854 42.4375 66.5C42.4375 65.1146 42.6927 63.8203 43.2031 62.6172C43.7135 61.4141 44.4427 60.3385 45.3906 59.3906C46.3385 58.4427 47.4141 57.7318 48.6172 57.2578C49.8203 56.7839 51.1146 56.5104 52.5 56.4375ZM98 35V112H7V0H63V35H98ZM70.1641 69.5625C70.237 69.0521 70.2917 68.5417 70.3281 68.0312C70.3646 67.5208 70.3828 67.0104 70.3828 66.5C70.3828 65.9896 70.3646 65.4792 70.3281 64.9688C70.2917 64.4583 70.237 63.9479 70.1641 63.4375L80.2812 59.2812L77.2734 51.9531L67.1562 56.1641C65.9531 54.487 64.513 53.0469 62.8359 51.8438L67.0469 41.7266L59.7188 38.7188L55.5625 48.8359C55.0521 48.763 54.5417 48.7083 54.0312 48.6719C53.5208 48.6354 53.0104 48.6172 52.5 48.6172C51.9896 48.6172 51.4792 48.6354 50.9688 48.6719C50.4583 48.7083 49.9479 48.763 49.4375 48.8359L45.2812 38.7188L37.9531 41.7266L42.1641 51.8438C40.487 53.0469 39.0469 54.487 37.8438 56.1641L27.7266 51.9531L24.7188 59.2812L34.8359 63.4375C34.763 63.9479 34.7083 64.4583 34.6719 64.9688C34.6354 65.4792 34.599 65.9896 34.5625 66.5C34.5625 67.0104 34.5807 67.5208 34.6172 68.0312C34.6536 68.5417 34.7266 69.0521 34.8359 69.5625L24.7188 73.7188L27.7266 81.0469L37.8438 76.8359C39.0469 78.513 40.487 79.9531 42.1641 81.1562L37.9531 91.2734L45.2812 94.2812L49.4375 84.1641C49.9479 84.237 50.4583 84.2917 50.9688 84.3281C51.4792 84.3646 51.9896 84.401 52.5 84.4375C53.0104 84.4375 53.5208 84.4193 54.0312 84.3828C54.5417 84.3464 55.0521 84.2734 55.5625 84.1641L59.7188 94.2812L67.0469 91.2734L62.8359 81.1562C64.513 79.9531 65.9531 78.513 67.1562 76.8359L77.2734 81.0469L80.2812 73.7188L70.1641 69.5625Z" fill="#16103A"/>
</svg>
