<svg width="121" height="111" viewBox="0 0 121 111" fill="none" xmlns="http://www.w3.org/2000/svg">
<path d="M54.272 20.792H73.1915L93.9399 1.81884C94.5261 1.27995 95.2236 0.852227 95.9921 0.560336C96.7606 0.268444 97.5849 0.118164 98.4175 0.118164C99.25 0.118164 100.074 0.268444 100.843 0.560336C101.611 0.852227 102.309 1.27995 102.895 1.81884L119.166 16.7099C120.34 17.7871 121 19.2443 121 20.7632C121 22.2822 120.34 23.7394 119.166 24.8166L104.724 38.0403H54.272V49.5392C54.272 51.064 53.6075 52.5264 52.4249 53.6047C51.2422 54.6829 49.6381 55.2886 47.9655 55.2886C46.2929 55.2886 44.6888 54.6829 43.5061 53.6047C42.3234 52.5264 41.659 51.064 41.659 49.5392V32.2909C41.659 29.2412 42.9879 26.3164 45.3532 24.1599C47.7186 22.0035 50.9268 20.792 54.272 20.792ZM16.433 49.5392V72.537L1.99111 85.7032C0.816519 86.7804 0.157227 88.2376 0.157227 89.7565C0.157227 91.2755 0.816519 92.7327 1.99111 93.8099L18.2619 108.701C18.8481 109.24 19.5457 109.668 20.3142 109.959C21.0827 110.251 21.907 110.402 22.7395 110.402C23.572 110.402 24.3963 110.251 25.1648 109.959C25.9333 109.668 26.6308 109.24 27.2171 108.701L54.272 84.0359H79.498C81.1706 84.0359 82.7746 83.4301 83.9573 82.3519C85.14 81.2737 85.8045 79.8113 85.8045 78.2864V72.537H92.111C93.7836 72.537 95.3876 71.9312 96.5703 70.853C97.753 69.7748 98.4175 68.3124 98.4175 66.7875V61.0381H104.724C106.397 61.0381 108.001 60.4323 109.183 59.3541C110.366 58.2759 111.03 56.8135 111.03 55.2886V49.5392H66.885V55.2886C66.885 58.3383 65.5561 61.2631 63.1907 63.4196C60.8253 65.576 57.6172 66.7875 54.272 66.7875H41.659C38.3138 66.7875 35.1056 65.576 32.7402 63.4196C30.3749 61.2631 29.046 58.3383 29.046 55.2886V38.0403L16.433 49.5392Z" fill="#16103A"/>
</svg>
