<svg width="87" height="99" viewBox="0 0 87 99" fill="none" xmlns="http://www.w3.org/2000/svg">
<path fill-rule="evenodd" clip-rule="evenodd" d="M43.5 38.0215C46.7963 38.0215 49.9575 36.5648 52.2883 33.972C54.6191 31.3791 55.9286 27.8624 55.9286 24.1955C55.9286 20.5286 54.6191 17.0119 52.2883 14.419C49.9575 11.8262 46.7963 10.3695 43.5 10.3695C40.2037 10.3695 37.0425 11.8262 34.7117 14.419C32.3809 17.0119 31.0714 20.5286 31.0714 24.1955C31.0714 27.8624 32.3809 31.3791 34.7117 33.972C37.0425 36.5648 40.2037 38.0215 43.5 38.0215ZM43.5 48.391C49.2685 48.391 54.8007 45.8418 58.8796 41.3043C62.9585 36.7668 65.25 30.6125 65.25 24.1955C65.25 17.7785 62.9585 11.6242 58.8796 7.0867C54.8007 2.54916 49.2685 0 43.5 0C37.7315 0 32.1993 2.54916 28.1204 7.0867C24.0415 11.6242 21.75 17.7785 21.75 24.1955C21.75 30.6125 24.0415 36.7668 28.1204 41.3043C32.1993 45.8418 37.7315 48.391 43.5 48.391ZM49.7143 56.8594C49.7316 55.5821 49.3004 54.3476 48.5126 53.4182C47.7247 52.4888 46.6421 51.9377 45.4948 51.8821C44.83 51.8598 44.165 51.8482 43.5 51.8475C19.575 51.8475 0 65.6735 0 79.4995C0 84.0831 1.63679 88.479 4.55031 91.7201C7.46382 94.9612 11.4154 96.782 15.5357 96.782H29.5179C30.754 96.782 31.9394 96.2358 32.8135 95.2634C33.6875 94.2911 34.1786 92.9723 34.1786 91.5973C34.1786 90.2222 33.6875 88.9034 32.8135 87.9311C31.9394 86.9588 30.754 86.4125 29.5179 86.4125H15.5357C13.8876 86.4125 12.307 85.6842 11.1416 84.3877C9.97615 83.0913 9.32143 81.3329 9.32143 79.4995C9.32143 78.0893 10.6886 73.9069 17.5243 69.4134C23.8504 65.2587 33.06 62.217 43.5 62.217C43.8646 62.217 44.2271 62.2216 44.5875 62.2308C47.3342 62.2861 49.7143 59.915 49.7143 56.8594ZM72.0236 58.9817C74.7206 59.6868 76.8459 62.0511 77.4859 65.0513L59.943 84.5598C58.5184 86.1475 56.6693 87.1784 54.6733 87.4978L51.3797 88.0163L51.8458 84.3524C52.133 82.132 53.0597 80.075 54.4869 78.4902L72.0236 58.9817ZM66.5364 91.8876L85.6018 70.6854C86.4957 69.6891 86.9985 68.3394 87 66.9317C86.9984 62.0149 85.2419 57.3001 82.1166 53.8235C78.9914 50.3468 74.7531 48.3928 70.3333 48.391C69.0688 48.3909 67.8556 48.9476 66.9589 49.9395L47.8935 71.1555C45.0425 74.3289 43.1934 78.4453 42.6238 82.8869L41.5674 91.1133C41.4316 92.1747 41.5196 93.2566 41.8244 94.2735C42.1292 95.2905 42.6425 96.2147 43.3236 96.9731C44.0047 97.7314 44.835 98.3032 45.7489 98.6432C46.6629 98.9831 47.6353 99.082 48.5895 98.932L55.9907 97.7567C59.9834 97.1231 63.6837 95.0661 66.5364 91.8945" fill="#16103A"/>
</svg>
