<svg width="138" height="138" viewBox="0 0 138 138" fill="none" xmlns="http://www.w3.org/2000/svg">
<path d="M38.8125 17.25C31.7184 17.25 25.875 23.0934 25.875 30.1875V107.812C25.875 114.907 31.7184 120.75 38.8125 120.75H112.125V17.25H38.8125ZM38.8125 25.875H103.5V94.875H38.8125C37.3393 94.8977 35.8808 95.1719 34.5 95.6857V30.1875C34.5 27.7466 36.3716 25.875 38.8125 25.875ZM47.4375 38.8125V47.4375H94.875V38.8125H47.4375ZM38.8125 103.5H103.5V112.125H38.8125C36.3716 112.125 34.5 110.253 34.5 107.812C34.5 105.372 36.3716 103.5 38.8125 103.5Z" fill="#16103A"/>
</svg>
