<svg width="117" height="111" viewBox="0 0 117 111" fill="none" xmlns="http://www.w3.org/2000/svg">
<path d="M115 88.333V109H2V88.333H115ZM68.2002 2V16.5H50.6504V26.667H92.4297C94.6627 26.667 97.1112 27.8654 99.2139 29.9434C101.277 31.9825 102.794 34.6701 103.313 37.2754L106.085 78.167H10.9297L13.9873 37.1484L13.9922 37.0742V37C13.9922 31.9602 18.9246 26.6671 24.8623 26.667H42.9502V16.5H25.4004V2H68.2002ZM21.4004 69.833H37.0996V59.667H21.4004V69.833ZM38.9502 69.833H54.6504V59.667H38.9502V69.833ZM21.4004 57.5H37.0996V47.333H21.4004V57.5ZM38.9502 57.5H54.6504V47.333H38.9502V57.5ZM62.3496 51.333H95.5996V35H62.3496V51.333ZM21.4004 45.167H37.0996V35H21.4004V45.167ZM38.9502 45.167H54.6504V35H38.9502V45.167ZM27.25 14.333H66.3496V4.16699H27.25V14.333Z" fill="#F4F5FA" stroke="#16103A" stroke-width="4"/>
</svg>
