<svg width="128" height="126" viewBox="0 0 128 126" fill="none" xmlns="http://www.w3.org/2000/svg">
<path d="M92.8747 53.5413C96 50.416 96 45.392 96 35.3333C96 25.2747 96 20.2507 92.8747 17.1253M92.8747 53.5413C89.7493 56.6667 84.7253 56.6667 74.6667 56.6667H53.3333C43.2747 56.6667 38.2507 56.6667 35.1253 53.5413M92.8747 17.1253C89.7493 14 84.7253 14 74.6667 14H53.3333C43.2747 14 38.2507 14 35.1253 17.1253M35.1253 17.1253C32 20.2507 32 25.2747 32 35.3333C32 45.392 32 50.416 35.1253 53.5413M69.3333 35.3333C69.3333 36.7478 68.7714 38.1044 67.7712 39.1046C66.771 40.1048 65.4145 40.6667 64 40.6667C62.5855 40.6667 61.229 40.1048 60.2288 39.1046C59.2286 38.1044 58.6667 36.7478 58.6667 35.3333C58.6667 33.9188 59.2286 32.5623 60.2288 31.5621C61.229 30.5619 62.5855 30 64 30C65.4145 30 66.771 30.5619 67.7712 31.5621C68.7714 32.5623 69.3333 33.9188 69.3333 35.3333Z" stroke="#16103A" stroke-width="6"/>
<path d="M95.9998 30C91.7564 30 87.6867 28.3143 84.6861 25.3137C81.6855 22.3131 79.9998 18.2435 79.9998 14M95.9998 40.6667C91.7564 40.6667 87.6867 42.3524 84.6861 45.353C81.6855 48.3535 79.9998 52.4232 79.9998 56.6667M31.9998 30C36.2433 30 40.313 28.3143 43.3135 25.3137C46.3141 22.3131 47.9998 18.2435 47.9998 14M31.9998 40.6667C36.2433 40.6667 40.313 42.3524 43.3135 45.353C46.3141 48.3535 47.9998 52.4232 47.9998 56.6667M26.6665 106.736H38.7198C44.1065 106.736 49.5625 107.301 54.8052 108.379C64.1658 110.296 73.7955 110.509 83.2318 109.008C87.8612 108.261 92.4052 107.115 96.5225 105.131C100.235 103.333 104.784 100.811 107.84 97.9787C110.891 95.152 114.069 90.528 116.32 86.912C118.261 83.808 117.323 80.0053 114.261 77.696C112.54 76.447 110.468 75.7744 108.341 75.7744C106.215 75.7744 104.142 76.447 102.421 77.696L92.7838 84.976C89.0505 87.8027 84.9705 90.4 80.1118 91.1733C79.5252 91.2658 78.9118 91.3493 78.2718 91.424M78.2718 91.424L77.6852 91.488M78.2718 91.424C79.1253 91.1927 79.9079 90.7529 80.5492 90.144C81.3541 89.4496 82.0116 88.6007 82.4825 87.6476C82.9535 86.6945 83.2285 85.6566 83.2911 84.5954C83.3538 83.5341 83.2029 82.4711 82.8473 81.4692C82.4918 80.4674 81.9388 79.547 81.2212 78.7627C80.5262 77.9911 79.7167 77.331 78.8212 76.8053C63.9038 67.904 40.6878 74.6827 26.6665 84.6293M78.2718 91.424C78.0793 91.467 77.8825 91.4884 77.6852 91.488M77.6852 91.488C74.4687 91.8104 71.2284 91.8175 68.0105 91.5093" stroke="#16103A" stroke-width="6" stroke-linecap="round"/>
<path d="M26.6665 80.6665C26.6665 76.2482 23.0848 72.6665 18.6665 72.6665C14.2482 72.6665 10.6665 76.2482 10.6665 80.6665V107.333C10.6665 111.751 14.2482 115.333 18.6665 115.333C23.0848 115.333 26.6665 111.751 26.6665 107.333V80.6665Z" stroke="#16103A" stroke-width="6"/>
</svg>
